<svg xmlns="http://www.w3.org/2000/svg" width="222" height="112" viewBox="545 314 222 112">
<path fill="#FEFEFE" d="M712.947 342.197C727.828 343.925 748.547 346.494 760.714 356.161C762.618 357.674 765.02 359.848 765.312 362.37C765.646 362.955 765.886 363.531 766.054 364.187C766.86 367.322 766.883 372.58 765.303 375.44C765.252 376.545 764.993 377.137 764.367 378.026C756.725 388.89 736.815 392.272 724.694 394.5C720.813 395.008 716.901 395.34 713.007 395.735L713.022 381.848C721.871 381.355 730.862 380.004 739.352 377.425C743.576 376.142 748.837 374.613 751.061 370.474C751.172 368.795 751.285 367.992 750.187 366.567C744.858 359.653 721.442 356.648 713.078 355.834L712.947 342.197Z"/>
<path fill="#FEFEFE" d="M593.484 342.931C593.931 342.846 594.369 342.762 594.824 342.733C596.587 342.62 597.156 342.425 598.504 343.59C599.851 347.125 598.925 352.144 598.777 355.942C592.148 356.574 585.422 357.562 578.948 359.126C573.118 360.534 564.339 362.55 561.054 367.945C560.853 369.618 560.692 370.353 561.762 371.806C566.494 378.238 591.163 381.287 598.841 381.909L599.063 395.884L591.143 395.079Q584.936 394.327 578.829 392.991C566.777 390.435 553.118 386.175 546.08 375.373C545.688 371.344 545.836 367.289 545.886 363.247C546.69 361.926 547.514 360.585 548.468 359.367C557.336 348.049 580.198 344.561 593.484 342.931Z"/>
<path fill="#FEFEFE" d="M612.971 397.756C616.749 397.805 628.454 396.396 631.138 398.628C631.887 399.252 631.833 400.987 631.954 401.975C627.862 401.791 616.776 403.137 613.853 401.021C613.067 400.452 613.105 398.735 612.971 397.756Z"/>
<path fill="#FEFEFE" d="M664.309 320.459C669.117 320.546 677.197 319.04 681.515 320.932C682.781 321.487 682.957 322.946 683.387 324.16C679.373 324.209 668.432 325.567 665.4 323.502C664.604 322.96 664.52 321.41 664.309 320.459Z"/>
<path fill="#FEFEFE" d="M675.235 339.569C679.596 339.499 688.274 338.024 692.005 340.116C692.958 340.651 693.128 342.222 693.437 343.266C689.327 343.417 679.996 344.953 676.52 342.742C675.665 342.198 675.5 340.558 675.235 339.569Z"/>
<path fill="#FEFEFE" d="M630.216 404.53C631.643 404.406 633.319 404.146 634.73 404.382C636.144 404.619 636.594 404.853 637.401 405.981L636.55 407.018C634.074 408.563 631.207 408.139 628.417 408.007C627.236 408.082 626.041 408.163 624.857 408.147C623.233 408.126 621.913 407.803 620.778 406.635L621.554 405.621C624.165 404.047 627.281 404.446 630.216 404.53Z"/>
<path fill="#FEFEFE" d="M683.214 345.974C687.459 346.008 695.076 344.395 698.772 346.28C699.736 346.772 699.9 348.305 700.211 349.333C696.093 349.229 687.841 350.805 684.368 348.776C683.41 348.216 683.455 347.013 683.214 345.974Z"/>
<path fill="#FEFEFE" d="M651.467 314.667C655.87 314.271 663.691 313.293 667.829 314.962C668.932 315.407 669.055 316.605 669.482 317.661C665.047 318.076 657.266 319.019 653.12 317.269C652.034 316.811 651.905 315.708 651.467 314.667Z"/>
<path fill="#FEFEFE" d="M683.452 397.433C687.117 397.314 691.391 396.726 694.891 397.944C695.956 399.346 695.638 399.795 695.5 401.503C691.974 401.544 686.212 402.289 683.181 400.472C682.766 398.949 682.905 398.837 683.452 397.433Z"/>
<path fill="#FEFEFE" d="M687.094 377.434C691.066 377.171 696.694 376.177 700.387 377.848C700.979 378.116 701.373 379.716 701.629 380.356C697.76 380.642 692.577 381.565 688.906 380.153C687.692 379.687 687.585 378.578 687.094 377.434Z"/>
<path fill="#FEFEFE" d="M694.022 360.725C697.447 360.811 701.65 359.675 704.854 360.976C706.455 362.612 706.119 363.663 706.267 365.9C704.177 365.535 696.964 364.256 695.293 363.412C694.203 362.861 694.275 361.811 694.022 360.725Z"/>
<path fill="#FEFEFE" d="M661.808 420.396C665.415 420.407 669.368 419.037 672.348 421.486L672.517 424.456C669.485 424.489 666.042 425.277 663.15 424.219C661.775 422.866 661.962 422.248 661.808 420.396Z"/>
<path fill="#FEFEFE" d="M613.127 379.473C616.709 379.578 622.421 378.093 625.275 380.481L625.47 382.867C622.654 382.755 616.06 383.801 613.806 382.117C613.038 381.543 613.215 380.392 613.127 379.473Z"/>
<path fill="#FEFEFE" d="M623.201 326.65C626.026 326.724 630.558 325.626 632.974 327.245C633.913 327.875 633.849 329.471 634.023 330.563C631.215 330.486 626.603 331.61 624.223 329.981C623.268 329.327 623.363 327.765 623.201 326.65Z"/>
<path fill="#FEFEFE" d="M676.252 408.095C679.188 407.879 683.957 407.008 686.506 408.607C687.45 409.199 687.513 410.583 687.781 411.632C685.055 411.699 680.952 412.216 678.435 411.2C676.865 410.567 676.82 409.553 676.252 408.095Z"/>
<path fill="#FEFEFE" d="M636.351 415.285C637.224 415.715 638.082 416.361 638.905 416.89C639.832 419.076 639.306 420.563 638.998 422.891C636.883 422.516 635.789 422.628 634.236 421.096C634.051 418.982 635.391 417.104 636.351 415.285Z"/>
<path fill="#FEFEFE" d="M638.109 317.16C640.178 317.169 642.159 317.163 644.195 317.585C645.85 318.883 645.758 319.534 646.189 321.514C644.249 321.525 642.479 321.43 640.557 321.113C638.737 319.758 638.716 319.251 638.109 317.16Z"/>
</svg>